<svg xmlns="http://www.w3.org/2000/svg" version="1.1" xmlns:xlink="http://www.w3.org/1999/xlink" width="512" height="512" x="0" y="0" viewBox="0 0 64 64" style="enable-background:new 0 0 512 512" xml:space="preserve" class=""><g><g data-name="Bookshelves-book-books-education-book store"><path fill="#f8d251" d="M3 55h58v4H3z" opacity="1" data-original="#f8d251"></path><path fill="#f2ac4c" d="M25 9h10v46H25z" opacity="1" data-original="#f2ac4c" class=""></path><path fill="#ef8746" d="M25 17h10v30H25z" opacity="1" data-original="#ef8746"></path><path fill="#ffeb99" d="M25 43h10v4H25z" opacity="1" data-original="#ffeb99"></path><path fill="#9e2849" d="M35 3h12v52H35z" opacity="1" data-original="#9e2849"></path><path fill="#ec455a" d="M35 9h12v40H35z" opacity="1" data-original="#ec455a"></path><path fill="#e9e9ea" d="M39 15h4v28h-4z" opacity="1" data-original="#e9e9ea"></path><path fill="#57a4ff" d="M47 5h12v50H47z" opacity="1" data-original="#57a4ff" class=""></path><path fill="#5bcbfa" d="M47 12h12v36H47z" opacity="1" data-original="#5bcbfa" class=""></path><path fill="#6bc19a" d="m15.245 7.982 9.66 2.59L12.99 55.008l-9.66-2.59z" opacity="1" data-original="#6bc19a"></path><path d="M61 54h-1V5a1 1 0 0 0-1-1H48V3a1 1 0 0 0-1-1H35a1 1 0 0 0-1 1v5h-9a1 1 0 0 0-1 1v.29l-8.5-2.28a.988.988 0 0 0-.75.1 1.026 1.026 0 0 0-.47.61L2.38 52.15a1 1 0 0 0 .7 1.23l2.33.62H3a1 1 0 0 0-1 1v4a1 1 0 0 0 1 1h58a1 1 0 0 0 1-1v-4a1 1 0 0 0-1-1zM48 6h10v5H48zm0 7h10v34H48zm0 36h10v5H48zM36 4h10v4H36zm0 6h10v38H36zm0 40h10v4H36zM26 10h8v6h-8zm0 8h8v24h-8zm0 26h8v2h-8zm0 4h8v6h-8zM4.57 51.7 15.95 9.2l7.73 2.07-11.39 42.51zM24 17.81V54h-9.7zM60 58H4v-2h56z" fill="#000000" opacity="1" data-original="#000000" class=""></path><path d="M39 44h4a1 1 0 0 0 1-1V15a1 1 0 0 0-1-1h-4a1 1 0 0 0-1 1v28a1 1 0 0 0 1 1zm1-28h2v26h-2zM8.504 48.626l1.036-3.864 1.932.518-1.036 3.864zM10.313 41.86l6.216-23.183 1.932.518-6.216 23.184zM17.303 15.777l.777-2.898 1.932.518-.777 2.898z" fill="#000000" opacity="1" data-original="#000000" class=""></path></g></g></svg>